<svg width="24" height="25" viewBox="0 0 24 25" fill="none" xmlns="http://www.w3.org/2000/svg">
<path d="M15.867 17.188H9.567L9.077 15.266H17.277L19.05 8.176H13.15V4.5H12.214V8.176H7.27L6.635 5.688H4V6.626H5.906L8.625 17.282C8.30828 17.3927 8.03266 17.597 7.83462 17.8678C7.63658 18.1386 7.52548 18.4632 7.51602 18.7986C7.50656 19.134 7.59919 19.4643 7.78165 19.7458C7.9641 20.0274 8.22777 20.2469 8.53775 20.3753C8.84772 20.5036 9.18938 20.5348 9.51747 20.4647C9.84557 20.3946 10.1446 20.2265 10.375 19.9826C10.6055 19.7387 10.7564 19.4306 10.8078 19.0991C10.8592 18.7675 10.8087 18.4282 10.663 18.126H14.374C14.218 18.4496 14.1715 18.8152 14.2415 19.1676C14.3115 19.5199 14.4941 19.84 14.762 20.0795C15.0298 20.3189 15.3682 20.4648 15.7262 20.4951C16.0841 20.5254 16.4423 20.4384 16.7465 20.2474C17.0507 20.0563 17.2846 19.7715 17.4128 19.4359C17.5409 19.1003 17.5565 18.7321 17.4571 18.3869C17.3577 18.0416 17.1488 17.7381 16.8618 17.522C16.5748 17.3059 16.2253 17.1891 15.866 17.189L15.867 17.188ZM7.509 9.113H12.209V11.254L11.092 10.133L10.429 10.796L12.684 13.049L14.936 10.8L14.273 10.137L13.151 11.254V9.113H17.851L16.551 14.328H8.84L7.509 9.113ZM9.172 19.562C9.02999 19.562 8.89118 19.5199 8.7731 19.441C8.65503 19.3621 8.563 19.25 8.50865 19.1188C8.45431 18.9876 8.44009 18.8432 8.4678 18.7039C8.4955 18.5646 8.56388 18.4367 8.6643 18.3363C8.76471 18.2359 8.89265 18.1675 9.03192 18.1398C9.1712 18.1121 9.31557 18.1263 9.44677 18.1807C9.57796 18.235 9.6901 18.327 9.76899 18.4451C9.84789 18.5632 9.89 18.702 9.89 18.844C9.89 19.0345 9.81439 19.2172 9.67976 19.3521C9.54514 19.4869 9.36252 19.5627 9.172 19.563V19.562ZM15.867 19.562C15.725 19.562 15.5862 19.5199 15.4681 19.441C15.35 19.3621 15.258 19.25 15.2037 19.1188C15.1493 18.9876 15.1351 18.8432 15.1628 18.7039C15.1905 18.5646 15.2589 18.4367 15.3593 18.3363C15.4597 18.2359 15.5876 18.1675 15.7269 18.1398C15.8662 18.1121 16.0106 18.1263 16.1418 18.1807C16.273 18.235 16.3851 18.327 16.464 18.4451C16.5429 18.5632 16.585 18.702 16.585 18.844C16.585 19.0345 16.5094 19.2172 16.3748 19.3521C16.2401 19.4869 16.0575 19.5627 15.867 19.563V19.562Z" fill="white"/>
</svg>
