<svg width="24" height="25" viewBox="0 0 24 25" fill="none" xmlns="http://www.w3.org/2000/svg">
<path d="M12 20.5C10.4178 20.5 8.87103 20.0308 7.55544 19.1518C6.23985 18.2727 5.21447 17.0233 4.60897 15.5615C4.00347 14.0997 3.84504 12.4911 4.15372 10.9393C4.4624 9.38743 5.22433 7.96197 6.34315 6.84315C7.46197 5.72433 8.88743 4.9624 10.4393 4.65372C11.9911 4.34504 13.5997 4.50347 15.0615 5.10897C16.5233 5.71447 17.7727 6.73985 18.6518 8.05544C19.5308 9.37103 20 10.9178 20 12.5C19.9979 14.6211 19.1544 16.6547 17.6545 18.1545C16.1547 19.6544 14.1211 20.4979 12 20.5ZM12 5.833C10.6814 5.833 9.3924 6.22402 8.29602 6.9566C7.19963 7.68918 6.34511 8.73042 5.8405 9.94865C5.33589 11.1669 5.20386 12.5074 5.46111 13.8007C5.71836 15.0939 6.35333 16.2819 7.28572 17.2143C8.21812 18.1467 9.40606 18.7817 10.6993 19.0389C11.9926 19.2961 13.3331 19.1641 14.5514 18.6595C15.7696 18.1549 16.8108 17.3004 17.5434 16.204C18.276 15.1076 18.667 13.8186 18.667 12.5C18.6652 10.7324 17.9621 9.03767 16.7122 7.78777C15.4623 6.53787 13.7676 5.83486 12 5.833Z" fill="#FBC61C"/>
<path d="M11.9995 16.5004C11.8226 16.5004 11.653 16.4302 11.5279 16.3051C11.4028 16.18 11.3325 16.0103 11.3325 15.8334V11.8334C11.3291 11.7437 11.3437 11.6543 11.3757 11.5704C11.4076 11.4865 11.4561 11.4099 11.5183 11.3452C11.5806 11.2805 11.6552 11.2291 11.7378 11.1939C11.8204 11.1587 11.9093 11.1406 11.999 11.1406C12.0888 11.1406 12.1776 11.1587 12.2602 11.1939C12.3428 11.2291 12.4175 11.2805 12.4797 11.3452C12.5419 11.4099 12.5905 11.4865 12.6224 11.5704C12.6543 11.6543 12.669 11.7437 12.6655 11.8334V15.8334C12.6655 16.0102 12.5954 16.1797 12.4705 16.3047C12.3457 16.4298 12.1763 16.5002 11.9995 16.5004Z" fill="#FBC61C"/>
<path d="M12 9.834C12.3684 9.834 12.667 9.53537 12.667 9.167C12.667 8.79863 12.3684 8.5 12 8.5C11.6316 8.5 11.333 8.79863 11.333 9.167C11.333 9.53537 11.6316 9.834 12 9.834Z" fill="#FBC61C"/>
</svg>
