<svg width="137" height="28" viewBox="0 0 137 28" fill="none" xmlns="http://www.w3.org/2000/svg">
<path d="M9.99 6H6.9V1.8L2.4 3.15V6H0V10.32H2.4V15.63C2.4 17.82 2.94 19.32 4.05 20.19C5.16 21.03 7.14 21.3 9.99 21V16.92C7.8 17.04 6.9 16.83 6.9 15.63V10.32H9.99V6ZM27.51 15.3C27.6322 14.7079 27.6926 14.1046 27.69 13.5C27.7226 12.461 27.5454 11.4261 27.1692 10.4571C26.7929 9.48803 26.2252 8.60476 25.5 7.86C24.8102 7.11431 23.9686 6.525 23.032 6.13172C22.0954 5.73845 21.0854 5.55032 20.07 5.58C19.0167 5.54122 17.9667 5.7191 16.985 6.1026C16.0032 6.48611 15.1107 7.06709 14.3626 7.80956C13.6145 8.55202 13.0268 9.44017 12.6359 10.419C12.245 11.3978 12.0592 12.4465 12.09 13.5C12.0583 14.5486 12.2415 15.5926 12.6285 16.5677C13.0154 17.5429 13.5979 18.4285 14.34 19.17C15.1472 19.9328 16.0998 20.5252 17.141 20.9118C18.1822 21.2984 19.2906 21.4712 20.4 21.42C21.6622 21.4981 22.9237 21.2558 24.0671 20.7155C25.2106 20.1753 26.1988 19.3547 26.94 18.33L23.34 16.26C22.9698 16.6454 22.521 16.9467 22.024 17.1434C21.5271 17.34 20.9937 17.4276 20.46 17.4C18.57 17.4 17.37 16.71 16.86 15.3H27.51ZM16.77 11.94C16.9308 11.2133 17.3524 10.5708 17.955 10.1341C18.5576 9.69733 19.2994 9.49664 20.04 9.57C20.7683 9.50713 21.4944 9.71369 22.0805 10.1505C22.6666 10.5874 23.0721 11.2241 23.22 11.94H16.77ZM37.44 21.42C38.8131 21.4412 40.1667 21.0932 41.3594 20.4124C42.552 19.7316 43.54 18.7431 44.22 17.55L40.29 15.3C40.0363 15.8451 39.6209 16.2988 39.1002 16.5994C38.5795 16.9 37.9789 17.0329 37.38 16.98C36.9243 16.9904 36.4713 16.9069 36.0493 16.7345C35.6273 16.5621 35.2454 16.3046 34.9273 15.9781C34.6092 15.6516 34.3618 15.263 34.2006 14.8367C34.0393 14.4103 33.9676 13.9553 33.99 13.5C33.9676 13.0447 34.0393 12.5897 34.2006 12.1633C34.3618 11.737 34.6092 11.3484 34.9273 11.0219C35.2454 10.6954 35.6273 10.4379 36.0493 10.2655C36.4713 10.0931 36.9243 10.0096 37.38 10.02C37.9783 9.97105 38.5773 10.1056 39.0972 10.4058C39.6171 10.7059 40.0332 11.1574 40.29 11.7L44.22 9.42C43.5257 8.24173 42.5338 7.26672 41.3438 6.59274C40.1539 5.91876 38.8076 5.5695 37.44 5.58C36.3908 5.55151 35.3467 5.73667 34.3713 6.12422C33.3959 6.51177 32.5094 7.09361 31.7658 7.83439C31.0222 8.57517 30.437 9.45941 30.0458 10.4334C29.6546 11.4073 29.4655 12.4507 29.49 13.5C29.4655 14.5493 29.6546 15.5927 30.0458 16.5666C30.437 17.5406 31.0222 18.4248 31.7658 19.1656C32.5094 19.9064 33.3959 20.4882 34.3713 20.8758C35.3467 21.2633 36.3908 21.4485 37.44 21.42ZM54.96 5.58C54.1497 5.51018 53.3347 5.64056 52.5866 5.95967C51.8386 6.27877 51.1804 6.77682 50.67 7.41V0H46.17V21H50.67V12.81C50.67 10.77 51.75 9.72 53.46 9.72C53.8188 9.69859 54.1779 9.75553 54.5124 9.88687C54.8469 10.0182 55.1489 10.2208 55.3972 10.4806C55.6456 10.7404 55.8344 11.0511 55.9506 11.3912C56.0667 11.7313 56.1075 12.0926 56.07 12.45V21H60.57V11.79C60.6178 10.9603 60.4991 10.1294 60.2209 9.34625C59.9427 8.56311 59.5106 7.84357 58.95 7.23C58.439 6.68904 57.8193 6.26236 57.1316 5.97798C56.4439 5.6936 55.7038 5.55797 54.96 5.58ZM74.67 7.53C74.1435 6.88479 73.4729 6.3722 72.7122 6.03351C71.9514 5.69481 71.1218 5.53948 70.29 5.58C69.3006 5.5582 68.3178 5.74761 67.4074 6.13559C66.4969 6.52357 65.6796 7.10122 65.01 7.83C64.3218 8.54141 63.7817 9.38246 63.4212 10.3043C63.0607 11.2262 62.887 12.2104 62.91 13.2C62.8687 15.2068 63.6238 17.1483 65.01 18.6C65.6855 19.3192 66.5046 19.8885 67.4142 20.2709C68.3237 20.6533 69.3035 20.8404 70.29 20.82C71.1218 20.8605 71.9514 20.7052 72.7122 20.3665C73.4729 20.0278 74.1435 19.5152 74.67 18.87V20.25C74.67 22.32 73.41 23.46 71.28 23.46C70.5884 23.5084 69.8975 23.3557 69.2907 23.0204C68.6839 22.685 68.187 22.1813 67.86 21.57L64.02 23.79C65.37 26.22 67.74 27.42 71.13 27.42C73.1561 27.4822 75.1403 26.8349 76.74 25.59C77.5215 24.9474 78.1387 24.1278 78.5404 23.1992C78.9421 22.2706 79.1168 21.2596 79.05 20.25V6H74.67V7.53ZM68.43 15.72C68.0874 15.3991 67.8187 15.0075 67.6425 14.5723C67.4664 14.1372 67.3871 13.6689 67.41 13.2C67.3871 12.7311 67.4664 12.2628 67.6425 11.8277C67.8187 11.3925 68.0874 11.0009 68.43 10.68C69.1584 10.0603 70.0836 9.72001 71.04 9.72001C71.9964 9.72001 72.9216 10.0603 73.65 10.68C73.9926 11.0009 74.2613 11.3925 74.4375 11.8277C74.6136 12.2628 74.693 12.7311 74.67 13.2C74.693 13.6689 74.6136 14.1372 74.4375 14.5723C74.2613 15.0075 73.9926 15.3991 73.65 15.72C72.9216 16.3397 71.9964 16.68 71.04 16.68C70.0836 16.68 69.1584 16.3397 68.43 15.72ZM97.02 15.3C97.1422 14.7079 97.2026 14.1046 97.2 13.5C97.2326 12.461 97.0554 11.4261 96.6792 10.4571C96.3029 9.48803 95.7352 8.60476 95.01 7.86C94.3202 7.11431 93.4786 6.525 92.542 6.13172C91.6054 5.73845 90.5954 5.55032 89.58 5.58C88.5267 5.54122 87.4767 5.7191 86.495 6.1026C85.5132 6.48611 84.6207 7.06709 83.8726 7.80956C83.1245 8.55202 82.5368 9.44017 82.1459 10.419C81.755 11.3978 81.5692 12.4465 81.6 13.5C81.5683 14.5486 81.7515 15.5926 82.1385 16.5677C82.5255 17.5429 83.1079 18.4285 83.85 19.17C84.6572 19.9328 85.6098 20.5252 86.651 20.9118C87.6922 21.2984 88.8006 21.4712 89.91 21.42C91.1722 21.4981 92.4337 21.2558 93.5771 20.7155C94.7206 20.1753 95.7088 19.3547 96.45 18.33L92.85 16.26C92.4798 16.6454 92.031 16.9467 91.534 17.1434C91.0371 17.34 90.5037 17.4276 89.97 17.4C88.08 17.4 86.88 16.71 86.37 15.3H97.02ZM86.28 11.94C86.4408 11.2133 86.8624 10.5708 87.465 10.1341C88.0676 9.69733 88.8094 9.49664 89.55 9.57C90.2783 9.50713 91.0044 9.71369 91.5905 10.1505C92.1766 10.5874 92.5821 11.2241 92.73 11.94H86.28ZM110.49 7.41C109.931 6.78844 109.238 6.3011 108.464 5.98425C107.69 5.66741 106.855 5.52923 106.02 5.58C105.058 5.57593 104.107 5.78031 103.232 6.17909C102.356 6.57787 101.578 7.16156 100.95 7.89C99.545 9.41444 98.7914 11.4277 98.85 13.5C98.7912 15.5813 99.5443 17.6039 100.95 19.14C101.58 19.8645 102.359 20.4437 103.234 20.8373C104.11 21.231 105.06 21.4298 106.02 21.42C106.855 21.4708 107.69 21.3326 108.464 21.0157C109.238 20.6989 109.931 20.2116 110.49 19.59V21H114.99V6H110.49V7.41ZM104.34 16.17C104.003 15.8149 103.742 15.3952 103.572 14.9363C103.402 14.4774 103.326 13.9888 103.35 13.5C103.326 13.0112 103.402 12.5226 103.572 12.0637C103.742 11.6048 104.003 11.1851 104.34 10.83C105.048 10.1927 105.967 9.84006 106.92 9.84006C107.873 9.84006 108.792 10.1927 109.5 10.83C109.837 11.1851 110.098 11.6048 110.268 12.0637C110.438 12.5226 110.514 13.0112 110.49 13.5C110.514 13.9888 110.438 14.4774 110.268 14.9363C110.098 15.3952 109.837 15.8149 109.5 16.17C108.792 16.8073 107.873 17.1599 106.92 17.1599C105.967 17.1599 105.048 16.8073 104.34 16.17ZM122.79 6H118.29V21H122.79V14.22C122.739 13.661 122.843 13.0988 123.092 12.5956C123.341 12.0925 123.724 11.6683 124.2 11.37C125.126 10.8103 126.225 10.6077 127.29 10.8V5.7C126.319 5.63742 125.354 5.89364 124.542 6.42972C123.729 6.9658 123.114 7.75241 122.79 8.67V6Z" fill="white"/>
<path d="M136.188 12.7568L127.83 12.7569L127.83 21.1148L136.188 12.7568Z" fill="#FFCC26"/>
</svg>
